PathFileType	4	(X/Y/Z)	C:\Users\JDoe\SprintCalib.trc
DataRate	CameraRate	NumFrames	NumMarkers	Units	OrigDataRate	OrigDataStartFrame	OrigNumFrames
250.00	250.00	       4	65	mm	250.00	211	       337
Frame#	Time	C7			T8			T12			IJ			PX			R.AA			R.AC			R.Scapula			R.HeadHum			R.Hum			R.Epi.Med			R.Epi.Lat			R.Ulna			R.Wrist.Uln			R.Wrist.Rad			R.Hand			R.Hand2			R.Hand5			L.AA			L.AC			L.Scapula			L.HeadHum			L.Hum			L.Epi.Med			L.Epi.Lat			L.Ulna			L.Wrist.Uln			L.Wrist.Rad			L.Hand			L.Hand2			L.Hand5			Tete.H			Tete.D			Tete.G			Sacral			R.EIAS			LEIAS			R.Crete			L.Crete			R.GT			R.Hip			R.Knee.Med			R.Knee.Lat			R.TTA			R.Fibula			R.Ankle.Med			R.Ankle.Lat			R.Calca			R.Foot.Med			R.Foot.Lat			L.GT			L.Hip			L.Knee.Med			L.Knee.Lat			L.TTA			L.Fibula			L.Ankle.Med			L.Ankle.Lat			L.Calca			L.Foot.Med			L.Foot.Lat			StartG			StartD			StartAvt			StartArr			
		X1	Y1	Z1	X2	Y2	Z2	X3	Y3	Z3	X4	Y4	Z4	X5	Y5	Z5	X6	Y6	Z6	X7	Y7	Z7	X8	Y8	Z8	X9	Y9	Z9	X10	Y10	Z10	X11	Y11	Z11	X12	Y12	Z12	X13	Y13	Z13	X14	Y14	Z14	X15	Y15	Z15	X16	Y16	Z16	X17	Y17	Z17	X18	Y18	Z18	X19	Y19	Z19	X20	Y20	Z20	X21	Y21	Z21	X22	Y22	Z22	X23	Y23	Z23	X24	Y24	Z24	X25	Y25	Z25	X26	Y26	Z26	X27	Y27	Z27	X28	Y28	Z28	X29	Y29	Z29	X30	Y30	Z30	X31	Y31	Z31	X32	Y32	Z32	X33	Y33	Z33	X34	Y34	Z34	X35	Y35	Z35	X36	Y36	Z36	X37	Y37	Z37	X38	Y38	Z38	X39	Y39	Z39	X40	Y40	Z40	X41	Y41	Z41	X42	Y42	Z42	X43	Y43	Z43	X44	Y44	Z44	X45	Y45	Z45	X46	Y46	Z46	X47	Y47	Z47	X48	Y48	Z48	X49	Y49	Z49	X50	Y50	Z50	X51	Y51	Z51	X52	Y52	Z52	X53	Y53	Z53	X54	Y54	Z54	X55	Y55	Z55	X56	Y56	Z56	X57	Y57	Z57	X58	Y58	Z58	X59	Y59	Z59	X60	Y60	Z60	X61	Y61	Z61	X62	Y62	Z62	X63	Y63	Z63	X64	Y64	Z64	X65	Y65	Z65	

211	0.840	-92.00282	89.51683	1480.66724	-44.59050	73.46127	1256.16113	-84.11366	74.14127	1129.89502	-235.14354	87.16371	1401.19055	-283.07443	82.29677	1251.92188	-44.38723	174.37637	1435.75549	-192.23836	203.98433	1419.27295	-111.19120	226.01488	1457.16956	-87.26807	311.97125	1404.34058	-46.77092	370.22980	1275.22058	-98.13293	392.25034	1152.21252	-50.09496	443.47598	1227.65845	-40.07788	557.74469	1137.47888	-41.97752	655.96423	1024.70203	-79.73063	676.25464	1064.75037	-47.47747	708.60547	1002.16913	-57.47614	696.65100	956.84265	-70.21886	754.08960	1013.34186	-44.22625	-11.72202	1431.98389	-196.10870	-27.76000	1429.55750	-125.64001	-61.88325	1467.50696	-107.32217	-157.73314	1424.34778	-68.13128	-197.75934	1284.97620	-144.69705	-257.01370	1202.63635	-94.19518	-299.68900	1278.30017	-100.17580	-386.39133	1160.25159	-138.56404	-532.53784	1086.96204	-174.95900	-559.41730	1131.26306	-160.46770	-591.82935	1071.99927	-189.50116	-639.02704	1080.43774	-173.45036	-584.69946	1026.89392	-133.43272	79.81888	1729.15186	-247.25743	80.33634	1715.18909	-49.57309	89.95810	1649.29065	-51.85080	69.69300	1025.48303	-264.56747	152.55168	1012.22675	-271.22168	3.44953	1020.96814	-156.82002	228.00075	1054.48779	-176.17932	-73.91019	1059.92627	-118.32218	241.12238	927.70319	-252.18346	221.74707	752.39905	-118.94663	141.25011	484.29370	-123.48522	262.54788	519.56195	-171.32191	215.13698	409.74805	-114.26955	281.18069	388.78174	-112.43179	170.22052	96.87955	-75.96642	252.78357	90.36540	-26.70103	191.17534	60.49347	-251.46173	249.01549	57.74319	-230.50635	302.88336	49.85540	-128.20482	-90.75605	937.42517	-122.44446	-124.20575	761.35547	-120.59924	1.49054	500.13663	-123.79001	-121.69469	522.08160	-177.78143	-90.42628	419.70682	-86.30799	-138.28925	349.05396	-135.52888	-44.44545	100.24370	-84.90617	-123.76833	86.60596	-45.00570	-54.50729	66.50903	-271.78598	-110.11154	52.72078	-240.28880	-177.49770	58.24523	-594.30823	266.49527	25.54544	-929.95142	-121.84692	33.68814	-519.44012	71.87989	45.07010	-1120.05310	77.46363	55.56725	-62.96837	162.82701	1149.45117	-41.39738	-14.39120	1263.95715	-11.59513	650.26331	18.96683	-4.16119	-539.64282	34.38654	-287.77573	81.05301	1047.38586	
212	0.844	-92.00282	89.51683	1480.66724	-44.52226	73.46548	1255.98523	-84.11366	74.14127	1129.89502	-234.87497	87.20261	1401.10059	-283.07443	82.29677	1251.92188	-44.29370	174.38170	1435.68408	-192.23836	203.98433	1419.27295	-111.19120	226.01488	1457.16956	-87.26807	311.97125	1404.34058	-46.66135	369.96133	1275.29980	-98.13293	392.25034	1152.21252	-50.13411	443.45288	1227.90076	-40.18071	557.75671	1137.36560	-41.97752	655.96423	1024.70203	-79.73063	676.25464	1064.75037	-47.38881	708.33136	1001.94196	-57.44976	696.84875	957.06683	-70.10763	754.09869	1013.08807	-44.13187	-11.75106	1431.93384	-196.10870	-27.76000	1429.55750	-125.50943	-61.83704	1467.42310	-107.32217	-157.73314	1424.34778	-68.13128	-197.75934	1284.97620	-144.50287	-256.98413	1202.85876	-94.07275	-299.82663	1278.30798	-100.17580	-386.39133	1160.25159	-138.56404	-532.53784	1086.96204	-174.67294	-559.53290	1131.50696	-160.36432	-592.07532	1072.43335	-189.78859	-638.99194	1080.57642	-173.45036	-584.69946	1026.89392	-133.43272	79.81888	1729.15186	-247.07138	80.27290	1715.21753	-49.57309	89.95810	1649.29065	-51.85080	69.69300	1025.48303	-264.56747	152.55168	1012.22675	-271.03284	3.54300	1021.10266	-156.49915	227.81097	1054.49036	-176.18816	-74.14492	1059.98560	-118.49245	241.15253	927.55865	-251.88405	221.65245	752.34808	-118.75841	141.15810	484.13205	-123.16676	262.54434	519.64996	-171.32191	215.13698	409.74805	-114.06585	281.02969	388.54092	-112.43179	170.22052	96.87955	-75.96642	252.78357	90.36540	-26.84163	191.16216	60.37423	-251.51527	249.04091	57.91139	-230.50635	302.88336	49.85540	-128.20482	-90.75605	937.42517	-122.40510	-124.12486	761.53656	-120.59924	1.49054	500.13663	-123.79603	-121.77319	521.95099	-177.90565	-90.13038	419.80728	-86.14954	-138.35596	348.93671	-135.52309	-44.61129	100.11027	-84.80917	-123.74135	86.46161	-44.86273	-54.57544	66.56592	-271.66434	-110.40846	52.76630	-240.36897	-177.60826	58.19147	-594.30823	266.49527	25.54544	-929.95142	-121.84692	33.68814	-519.44012	71.87989	45.07010	-1119.95569	77.42956	55.45056	-62.96837	162.82701	1149.45117	-41.45341	-14.26398	1263.72961	-11.59513	650.26331	18.96683	-4.22213	-539.71930	34.38921	-287.77573	81.05301	1047.38586	
213	0.848	-92.00282	89.51683	1480.66724	-44.41074	73.27773	1256.31628	-84.11366	74.14127	1129.89502	-235.08592	87.05013	1401.03320	-283.07443	82.29677	1251.92188	-43.96262	174.42172	1435.53284	-191.94917	204.08897	1419.36499	-111.07725	226.15283	1457.10693	-87.16087	312.17050	1404.38025	-46.59140	370.02481	1275.17981	-98.13293	392.25034	1152.21252	-49.79684	443.75626	1227.70618	-39.98701	557.82037	1137.44629	-41.97752	655.96423	1024.70203	-79.62156	676.26093	1064.82410	-47.46281	708.44122	1001.78156	-57.44976	696.84875	957.06683	-70.10763	754.09869	1013.08807	-44.13187	-11.75106	1431.93384	-196.10870	-27.76000	1429.55750	-125.40624	-61.99240	1467.39075	-107.19902	-157.66460	1424.31848	-68.13128	-197.75934	1284.97620	-144.50287	-256.98413	1202.85876	-94.09492	-299.99310	1278.39722	-100.32909	-386.39786	1160.33752	-138.54370	-532.37567	1086.83118	-174.67294	-559.53290	1131.50696	-160.36432	-592.07532	1072.43335	-189.78859	-638.99194	1080.57642	-173.56534	-584.09167	1026.63000	-133.51735	79.82584	1729.23120	-247.21092	80.42233	1715.25696	-49.57309	89.95810	1649.29065	-51.65197	69.58016	1025.57703	-264.07410	152.48694	1011.83020	-270.89682	3.51754	1021.17444	-156.49915	227.81097	1054.49036	-176.18816	-74.14492	1059.98560	-118.32218	241.12238	927.70319	-251.88405	221.65245	752.34808	-118.91844	141.41884	484.47287	-123.20346	262.76202	519.44910	-171.06099	215.45865	409.55481	-114.06585	281.02969	388.54092	-112.43179	170.22052	96.87955	-75.96876	253.00365	90.43387	-26.70103	191.17534	60.49347	-251.51527	249.04091	57.91139	-230.38811	302.95749	49.98752	-128.20482	-90.75605	937.42517	-122.24267	-124.15469	761.25781	-120.59924	1.49054	500.13663	-123.79001	-121.69469	522.08160	-177.69975	-90.52317	419.90442	-86.30799	-138.28925	349.05396	-135.52888	-44.44545	100.24370	-84.87756	-123.64723	86.53024	-44.90813	-54.39541	66.53758	-271.91592	-110.15910	52.69899	-240.26573	-177.65240	58.26959	-594.34253	266.39792	25.56196	-929.87238	-121.89835	33.76205	-519.44012	71.87989	45.07010	-1120.00781	77.50151	55.50018	-62.84555	162.87395	1149.65015	-41.45341	-14.26398	1263.72961	-11.55138	650.24347	18.88408	-4.26367	-539.61664	34.37408	-288.71790	82.16178	1048.79492	
214	0.852	-91.70716	89.69440	1480.55542	-44.20611	73.43556	1256.40869	-84.11366	74.14127	1129.89502	-234.83698	87.00489	1401.17236	-283.07443	82.29677	1251.92188	-44.11571	174.40327	1435.35168	-191.94917	204.08897	1419.36499	-110.88541	226.22166	1457.04004	-87.04372	312.10971	1404.42798	-46.77092	370.22980	1275.22058	-98.13293	392.25034	1152.21252	-49.96254	443.57227	1227.72852	-39.98701	557.82037	1137.44629	-41.81883	656.01459	1024.79626	-79.57568	676.40344	1064.67212	-47.43412	708.66711	1002.07849	-57.35111	696.88708	956.61774	-70.04967	754.51715	1013.31738	-44.13187	-11.75106	1431.93384	-195.95190	-27.72799	1429.56921	-125.45387	-61.89774	1467.48218	-107.06358	-157.73593	1424.48535	-68.13128	-197.75934	1284.97620	-144.50287	-256.98413	1202.85876	-94.07275	-299.82663	1278.30798	-100.07475	-386.52521	1160.64270	-140.18816	-531.50189	1085.69067	-174.67294	-559.53290	1131.50696	-160.36432	-592.07532	1072.43335	-189.83784	-639.13013	1080.73682	-173.56534	-584.09167	1026.63000	-133.43272	79.81888	1729.15186	-247.17458	80.39449	1715.08350	-49.57309	89.95810	1649.29065	-51.72505	69.73044	1025.40234	-263.97562	152.45717	1011.98273	-270.89682	3.51754	1021.17444	-156.49915	227.81097	1054.49036	-176.17932	-73.91019	1059.92627	-118.09303	241.18704	927.54938	-251.88405	221.65245	752.34808	-118.94663	141.25011	484.29370	-123.21053	262.67291	519.58582	-171.32191	215.13698	409.74805	-114.06585	281.02969	388.54092	-112.58526	170.13991	97.09249	-75.95242	253.21643	90.35982	-26.70103	191.17534	60.49347	-251.51527	249.04091	57.91139	-230.50635	302.88336	49.85540	-128.05829	-90.79622	937.48260	-122.24267	-124.15469	761.25781	-120.59924	1.49054	500.13663	-123.64095	-121.84651	522.18610	-177.71384	-90.69877	420.15283	-86.14954	-138.35596	348.93671	-135.52888	-44.44545	100.24370	-84.81644	-123.89436	86.52404	-44.86273	-54.57544	66.56592	-271.68353	-110.15054	52.83104	-240.25237	-177.68810	58.05378	-594.41193	266.57086	25.48889	-929.84241	-121.90863	33.66837	-519.44012	71.87989	45.07010	-1120.03491	77.49483	55.54295	-62.82007	163.14633	1149.52441	-41.39738	-14.39120	1263.95715	-11.55138	650.24347	18.88408	-4.32461	-539.69312	34.37676	-287.77573	81.05301	1047.38586	
